<?xml version="1.0" encoding="iso-8859-1"?>
<!-- Generator: Adobe Illustrator 19.0.0, SVG Export Plug-In . SVG Version: 6.00 Build 0)  -->
<svg version="1.1" id="Capa_1" xmlns="http://www.w3.org/2000/svg" xmlns:xlink="http://www.w3.org/1999/xlink" x="0px" y="0px"
	 viewBox="0 0 512 512" style="enable-background:new 0 0 512 512;" xml:space="preserve">
<rect x="4.339" style="fill:#B7E5FF;" width="503.322" height="390.508"/>
<g>
	<rect x="238.644" y="269.017" style="fill:#FFA511;" width="34.712" height="86.78"/>
	<rect x="325.424" y="216.949" style="fill:#FFA511;" width="34.712" height="138.847"/>
</g>
<rect x="412.203" y="121.492" style="fill:#EF2648;" width="34.712" height="234.305"/>
<g>
	<path style="fill:#163768;" d="M134.508,512c-4.79,0-8.678-3.888-8.678-8.678c0-0.868,0.13-1.727,0.382-2.551l34.712-112.814
		c1.406-4.582,6.265-7.151,10.847-5.745c4.582,1.406,7.151,6.265,5.745,10.847l-34.712,112.814
		C141.685,509.518,138.318,512,134.508,512z"/>
	<path style="fill:#163768;" d="M377.492,512c-3.81,0-7.177-2.482-8.296-6.127L334.484,393.06
		c-1.406-4.582,1.163-9.442,5.745-10.847c4.582-1.406,9.442,1.163,10.847,5.745l34.712,112.814
		c1.406,4.582-1.163,9.433-5.745,10.847C379.218,511.87,378.359,512,377.492,512z"/>
	<rect x="151.864" y="433.898" style="fill:#163768;" width="208.271" height="17.356"/>
</g>
<g>
	<rect x="65.085" y="321.085" style="fill:#FFDC13;" width="34.712" height="34.712"/>
	<rect x="151.864" y="303.729" style="fill:#FFDC13;" width="34.712" height="52.068"/>
</g>
<g>
	<path style="fill:#235087;" d="M56.407,295.051v-17.356c150.563,0,293.949-96.837,365.342-246.715l15.672,7.463
		C363.173,194.326,213.617,295.051,56.407,295.051z"/>
	<path style="fill:#235087;" d="M446.915,95.458c-3.732,0-7.047-2.395-8.227-5.936l-14.197-42.574l-43.121,21.608
		c-4.287,2.143-9.502,0.399-11.646-3.888s-0.399-9.502,3.888-11.646l52.068-26.034c4.278-2.161,9.494-0.443,11.654,3.836
		c0.191,0.382,0.356,0.781,0.495,1.189l17.356,52.068c1.493,4.556-0.998,9.459-5.545,10.943
		C448.755,95.319,447.844,95.458,446.915,95.458z"/>
</g>
<path style="fill:#99C8E0;" d="M446.915,355.797h-34.712v-62.768c-17.122,7.368-34.478,14.267-52.068,20.697v42.071h-34.712V325.58
	c-17.156,5.528-34.512,10.604-52.068,15.23v14.987h-34.712v-6.569c-71.22,15.933-143.976,23.951-216.949,23.925
	c-5.806,0-11.576-0.121-17.356-0.217v17.573h503.322V245.691c-19.838,11.212-40.084,21.756-60.746,31.623V355.797z"/>
<g>
	<path style="fill:#F08015;" d="M273.356,355.797V340.81c-11.49,3.011-23.057,5.814-34.712,8.418v6.569H273.356z"/>
	<path style="fill:#F08015;" d="M360.136,355.797v-42.071c-11.464,4.174-23.049,8.097-34.712,11.854v30.217H360.136z"/>
</g>
<path style="fill:#B20D24;" d="M446.915,355.797v-78.483c-11.446,5.458-23.023,10.7-34.712,15.716v62.768H446.915z"/>
<g>
</g>
<g>
</g>
<g>
</g>
<g>
</g>
<g>
</g>
<g>
</g>
<g>
</g>
<g>
</g>
<g>
</g>
<g>
</g>
<g>
</g>
<g>
</g>
<g>
</g>
<g>
</g>
<g>
</g>
</svg>
